<svg width="25" height="24" viewBox="0 0 25 24" fill="none" xmlns="http://www.w3.org/2000/svg">
<path fill-rule="evenodd" clip-rule="evenodd" d="M16.6667 3.24268H8.66669C5.90527 3.24268 3.66669 5.48126 3.66669 8.24268V16.2427C3.66669 19.0041 5.90527 21.2427 8.66669 21.2427H16.6667C19.4281 21.2427 21.6667 19.0041 21.6667 16.2427V8.24268C21.6667 5.48126 19.4281 3.24268 16.6667 3.24268ZM19.9167 16.2427C19.9112 18.0353 18.4593 19.4872 16.6667 19.4927H8.66669C6.87404 19.4872 5.42218 18.0353 5.41669 16.2427V8.24268C5.42218 6.45003 6.87404 4.99817 8.66669 4.99268H16.6667C18.4593 4.99817 19.9112 6.45003 19.9167 8.24268V16.2427ZM17.4167 8.49268C17.969 8.49268 18.4167 8.04496 18.4167 7.49268C18.4167 6.9404 17.969 6.49268 17.4167 6.49268C16.8644 6.49268 16.4167 6.9404 16.4167 7.49268C16.4167 8.04496 16.8644 8.49268 17.4167 8.49268ZM12.6667 7.74268C10.1814 7.74268 8.16669 9.7574 8.16669 12.2427C8.16669 14.728 10.1814 16.7427 12.6667 16.7427C15.152 16.7427 17.1667 14.728 17.1667 12.2427C17.1694 11.0484 16.6961 9.90225 15.8516 9.05776C15.0071 8.21327 13.861 7.74002 12.6667 7.74268ZM9.91669 12.2427C9.91669 13.7615 11.1479 14.9927 12.6667 14.9927C14.1855 14.9927 15.4167 13.7615 15.4167 12.2427C15.4167 10.7239 14.1855 9.49268 12.6667 9.49268C11.1479 9.49268 9.91669 10.7239 9.91669 12.2427Z" fill="#F7FFFB"/>
</svg>
