<svg width="25" height="24" viewBox="0 0 25 24" fill="none" xmlns="http://www.w3.org/2000/svg">
<path d="M22.2597 7.20301C22.1458 6.78041 21.9232 6.39501 21.6141 6.08518C21.3049 5.77534 20.9201 5.55187 20.4977 5.43701C18.9317 5.00701 12.6667 5.00001 12.6667 5.00001C12.6667 5.00001 6.40271 4.99301 4.83571 5.40401C4.41364 5.52415 4.02953 5.75078 3.72028 6.06214C3.41102 6.3735 3.187 6.75913 3.06971 7.18201C2.65671 8.74801 2.65271 11.996 2.65271 11.996C2.65271 11.996 2.64871 15.26 3.05871 16.81C3.28871 17.667 3.96371 18.344 4.82171 18.575C6.40371 19.005 12.6517 19.012 12.6517 19.012C12.6517 19.012 18.9167 19.019 20.4827 18.609C20.9052 18.4943 21.2905 18.2714 21.6004 17.9622C21.9103 17.653 22.1341 17.2682 22.2497 16.846C22.6637 15.281 22.6667 12.034 22.6667 12.034C22.6667 12.034 22.6867 8.76901 22.2597 7.20301ZM10.6627 15.005L10.6677 9.00501L15.8747 12.01L10.6627 15.005Z" fill="#F7FFFB"/>
</svg>
